<?xml version="1.0" encoding="UTF-8" standalone="no"?>
<!-- Created with Inkscape (http://www.inkscape.org/) -->

<svg
   width="100.80997mm"
   height="105.82849mm"
   viewBox="0 0 100.80997 105.82849"
   version="1.1"
   id="svg1"
   xml:space="preserve"
   xmlns="http://www.w3.org/2000/svg"
   xmlns:svg="http://www.w3.org/2000/svg"><defs
     id="defs1" /><g
     id="layer1"
     transform="translate(-58.526916,-89.755981)"><path
       style="fill:#000000"
       d="m 106.89745,195.09059 c -1.03499,-0.63111 -1.47578,-1.79726 -1.13958,-3.01486 0.32978,-1.19437 1.03394,-1.78577 2.33386,-1.96013 0.963,-0.12916 1.16598,-0.0492 2.00491,0.78972 1.28712,1.28712 1.29819,2.52658 0.0338,3.79093 -1.04347,1.04347 -1.98096,1.15782 -3.23303,0.39434 z m -44.274764,-2.44126 c -2.57435,-1.28642 -3.92191,-3.46975 -3.95999,-6.41602 l -0.0201,-1.55732 1.22755,0.16825 c 0.67516,0.0925 1.86578,0.16826 2.64583,0.16826 1.39249,0 1.41828,0.0141 1.41828,0.77652 0,0.42709 0.12664,1.1117 0.28142,1.52136 0.28297,0.74893 1.50781,2.20003 1.85701,2.20003 0.10303,0 -0.0383,-0.72498 -0.31409,-1.61107 -0.27578,-0.88609 -0.50142,-1.8973 -0.50142,-2.24713 v -0.63606 l 36.975524,-0.068 c 20.33654,-0.0374 41.17247,-0.0367 46.30208,0.002 l 9.32657,0.0695 -0.006,1.38568 c -0.0103,2.46741 -1.67755,5.0603 -4.09523,6.36903 -1.05512,0.57116 -1.11896,0.57311 -21.06539,0.64543 l -20.00705,0.0725 -0.1322,-1.17285 c -0.17047,-1.51242 -0.97666,-2.62384 -2.40469,-3.31514 -1.50219,-0.7272 -2.66369,-0.69672 -4.03315,0.10584 -1.20941,0.70876 -2.23147,2.38473 -2.23147,3.65915 v 0.71021 H 84.084826 64.283336 Z m -4.03626,-14.97902 c -0.0419,-3.16508 -0.0676,-20.87562 -0.0572,-39.35677 0.0153,-27.12029 0.0865,-33.80623 0.36897,-34.66041 0.93773,-2.83529 3.17548,-4.686029 6.23119,-5.153539 1.19198,-0.18237 7.15196,-0.25703 16.79651,-0.2104 l 14.94896,0.0723 0.13229,2.130399 c 0.15301,2.46411 0.5526,3.24757 2.03071,3.98161 0.9296,0.46165 1.690594,0.50257 9.346374,0.50257 h 8.33438 l 1.02343,-0.6362 c 1.34634,-0.83693 2.0059,-2.30008 2.01347,-4.466659 l 0.006,-1.66328 16.20573,0.0758 16.20572,0.0758 1.39903,0.63219 c 0.80553,0.36399 1.83535,1.127849 2.42753,1.800609 1.91544,2.17605 1.86199,1.57705 1.86199,20.86616 v 17.25158 l 0.71048,1.81744 c 1.02249,2.61554 1.01956,5.86139 -0.007,8.29973 -0.65539,1.55595 -0.72199,2.00966 -0.69908,4.7625 0.0139,1.67349 0.0187,9.02559 0.0107,16.33802 l -0.0146,13.29531 H 111.69153 65.521736 l -0.0472,-40.34896 c -0.026,-22.19192 -0.0558,-40.61684 -0.0662,-40.94427 -0.0167,-0.52569 0.12808,-0.60474 1.23787,-0.67595 0.88236,-0.0566 1.25677,-0.19456 1.25677,-0.46302 0,-0.46928 -2.98306,-0.54185 -4.14996,-0.10097 -1.57943,0.59675 -2.99379,2.52225 -2.99379,4.07572 0,0.98364 0.38209,0.81789 0.93352,-0.40497 0.46259,-1.02584 1.74316,-2.36466 2.26178,-2.36466 0.27869,0 0.34394,72.48409 0.0701,77.85364 l -0.17205,3.37344 h -2.59498 -2.59498 z m 82.261534,-0.0725 c 1.37609,-0.54643 1.40292,-0.82166 1.40292,-14.39469 v -12.57527 l -0.66146,-1.97045 c -0.86881,-2.58814 -0.86687,-4.61152 0.007,-7.21447 l 0.66837,-1.99104 -0.0731,-13.59269 -0.073,-13.5927 -0.60263,-0.6025 -0.60263,-0.6025 -32.2057,-0.0783 c -23.018104,-0.056 -32.494614,0.005 -33.218404,0.2152 -1.87255,0.54279 -1.76543,-1.47838 -1.76543,33.31198 0,24.08076 0.0741,31.3796 0.32431,31.92868 0.66952,1.46942 -0.69703,1.41323 34.071524,1.401 17.68078,-0.006 32.40853,-0.11522 32.72833,-0.24221 z m -60.900634,-7.2035 c -0.89984,-0.78185 -1.16245,-2.32066 -0.55441,-3.24863 l 0.44502,-0.6792 1.3308,1.11421 c 0.73195,0.61282 1.51508,1.39545 1.7403,1.73919 0.37433,0.57129 0.3689,0.66983 -0.0633,1.14735 -0.64709,0.71503 -2.03169,0.6802 -2.89846,-0.0729 z m 53.366594,0.18343 c -0.32342,-0.22653 -0.58804,-0.55768 -0.58804,-0.73588 0,-0.17821 0.72166,-1.03466 1.60368,-1.90323 l 1.60369,-1.57922 0.64527,0.74236 c 0.70514,0.81124 0.8052,1.49326 0.34973,2.38389 -0.72435,1.41638 -2.4199,1.9287 -3.61433,1.09208 z m -27.712,-1.60199 c -1.17865,-1.27179 -1.12185,-1.60515 0.56365,-3.30843 0.84734,-0.85627 1.6295,-1.55686 1.73813,-1.55686 0.39132,0 2.12421,1.70086 2.35718,2.3136 0.16582,0.43614 0.11948,0.85616 -0.15248,1.38207 -0.98304,1.90098 -3.27692,2.49633 -4.50648,1.16962 z m -22.966004,-1.90592 -1.78212,-1.79588 0.61924,-0.58175 c 0.34058,-0.31996 0.73407,-0.58174 0.87441,-0.58174 0.14035,0 0.99806,0.74954 1.90602,1.66565 l 1.65085,1.66565 -0.74314,0.71197 -0.74314,0.71197 z m 48.240314,1.08467 -0.52559,-0.66819 0.7674,-0.96032 c 0.42208,-0.52818 1.17228,-1.34897 1.66713,-1.82399 l 0.89972,-0.86367 0.62361,0.66381 0.62361,0.6638 -1.76514,1.82837 -1.76514,1.82837 z m -45.738744,-3.35769 c -1.25399,-1.25619 -1.62505,-1.78888 -1.4552,-2.08909 0.27041,-0.47798 17.462774,-17.41905 17.989504,-17.72656 0.29778,-0.17384 0.36242,0.31221 0.36242,2.72512 0,3.32114 0.29029,4.19868 1.66649,5.0378 1.09869,0.66991 2.966,0.67643 4.05208,0.0142 0.92004,-0.56102 1.95435,-2.45041 1.95435,-3.57003 0,-0.40275 0.11409,-0.69258 0.25353,-0.64407 0.13944,0.0485 2.46116,2.27851 5.15937,4.95556 4.08152,4.04951 4.90585,4.99424 4.90585,5.6224 0,0.76306 -0.79457,1.81336 -1.37185,1.81336 -0.17243,0 -1.34772,-1.01204 -2.61176,-2.24896 -1.26404,-1.23693 -2.41806,-2.24896 -2.56451,-2.24896 -0.14644,0 -0.39922,0.16022 -0.56174,0.35604 -0.23148,0.27892 0.21993,0.90908 2.08427,2.90955 1.30887,1.40444 2.37976,2.67298 2.37976,2.81897 0,0.47132 -1.04185,1.32377 -1.61789,1.32377 -0.71727,0 -4.60014,-3.74437 -5.30237,-5.11324 -0.97151,-1.89382 -3.21885,-2.1747 -4.70896,-0.58855 l -0.59453,0.63285 -0.7947,-0.90511 c -0.43709,-0.49781 -0.90344,-0.90511 -1.03633,-0.90511 -0.13289,0 -0.755,-0.53579 -1.38245,-1.19063 -1.34492,-1.40364 -2.465084,-1.58061 -3.768034,-0.59531 -0.43298,0.32742 -3.09963,3.00633 -5.92588,5.95312 -2.82626,2.9468 -5.20381,5.35584 -5.28344,5.35344 -0.0796,-0.002 -0.90223,-0.76314 -1.82798,-1.69052 z m 16.909674,1.04721 c -0.72568,-0.77244 -0.91712,-0.42247 2.03386,-3.71794 2.64618,-2.95509 3.02009,-3.3072 3.69063,-3.4755 0.70068,-0.17586 1.6709,0.50466 1.6709,1.17198 0,0.486 -5.78445,6.50765 -6.35347,6.614 -0.22703,0.0424 -0.6959,-0.22421 -1.04192,-0.59254 z m 23.2271,-3.25492 c -2.13023,-2.14643 -3.94496,-4.14684 -4.03274,-4.44535 -0.18786,-0.63886 -12.36379,-12.81871 -12.81458,-12.81871 -0.20944,0 -0.30731,0.72179 -0.30731,2.26635 0,2.5399 -0.20307,3.10768 -1.31762,3.68404 -1.14214,0.59062 -1.80547,0.49222 -2.6979,-0.4002 l -0.79981,-0.79981 0.0926,-3.36738 c 0.0852,-3.09906 0.14982,-3.46477 0.81114,-4.58972 1.15021,-1.95655 3.49415,-2.78295 5.60593,-1.97645 0.94538,0.36104 3.11311,2.4315 11.70537,11.18012 5.79982,5.90536 10.64096,10.90207 10.7581,11.10379 0.14668,0.25258 -0.30253,0.94255 -1.44299,2.21634 -0.91078,1.01727 -1.66296,1.84959 -1.6715,1.84959 -0.009,0 -1.75843,-1.75618 -3.88865,-3.90261 z m -14.74717,1.94467 -1.6783,-1.69335 0.49532,-0.67958 c 0.27242,-0.37378 0.71282,-0.68333 0.97865,-0.6879 0.48916,-0.008 3.88229,3.16088 3.88229,3.62618 0,0.41866 -0.93302,1.128 -1.48369,1.128 -0.28378,0 -1.27121,-0.76201 -2.19427,-1.69335 z m -11.553974,-1.34028 c -0.39944,-0.60962 -0.39304,-0.70071 0.0977,-1.38986 0.58133,-0.8164 3.365244,-3.51401 3.626434,-3.51401 0.63362,0 1.18907,0.63696 1.18907,1.36355 0,0.65478 -0.33982,1.14895 -1.72204,2.50423 -0.94713,0.92866 -1.95641,1.68847 -2.242864,1.68847 -0.28645,0 -0.71317,-0.29357 -0.94827,-0.65238 z m -2.58644,-2.4773 c -0.65533,-0.72413 -0.56083,-0.99942 0.92089,-2.68274 1.68529,-1.91459 2.42919,-2.30439 3.303934,-1.73124 0.34593,0.22666 0.62896,0.62092 0.62896,0.87613 0,0.57406 -3.429494,4.0217 -4.000534,4.0217 -0.22845,0 -0.61242,-0.21774 -0.85325,-0.48385 z m -4.07264,-10.66501 c -1.97052,-2.8764 -2.71746,-5.45921 -2.71071,-9.37325 0.008,-4.73924 1.51641,-8.60438 4.69886,-12.04172 4.49406,-4.854 10.031904,-6.92239 16.256364,-6.07178 3.93018,0.53709 6.37534,1.50068 9.15469,3.6077 0.62841,0.4764 1.29573,0.8074 1.48293,0.73556 0.1872,-0.0718 1.03239,0.52379 1.87819,1.32361 l 1.53781,1.45422 -3.13863,3.18955 c -1.72625,1.75426 -3.26418,3.18943 -3.41763,3.18928 -0.15344,-1.4e-4 -0.60875,-0.58739 -1.01178,-1.305 -3.85863,-6.87023 -14.70949,-6.41074 -17.408534,0.73719 -0.87576,2.31927 -0.35083,5.38847 1.230434,7.19424 0.31117,0.35534 -0.17007,0.93536 -3.701784,4.46156 l -4.05946,4.05311 z m 28.210134,-1.91095 c -1.54495,-1.47559 -3.30429,-3.23543 -3.90965,-3.91075 l -1.10065,-1.22786 0.82958,-1.33452 c 0.55923,-0.8996 0.92552,-1.94375 1.12394,-3.20391 0.1619,-1.02817 0.36695,-1.8694 0.45567,-1.8694 0.0887,0 0.32327,0.30261 0.52121,0.67246 l 0.35988,0.67245 2.71886,-2.7096 c 1.49537,-1.49028 2.76715,-2.65609 2.82617,-2.59069 0.27798,0.30803 1.07724,2.06981 1.54389,3.40315 0.72628,2.07517 0.90336,5.7559 0.39226,8.15321 -0.38661,1.81335 -2.21998,6.18784 -2.71926,6.48823 -0.12809,0.0771 -1.49695,-1.06718 -3.0419,-2.54277 z M 90.092366,130.9625 c -0.20742,-0.17703 -1.55724,-1.54281 -2.9996,-3.03507 l -2.62248,-2.7132 0.89637,-0.92482 c 0.49301,-0.50865 1.03693,-0.92483 1.20872,-0.92483 0.17178,0 1.46139,1.24086 2.86579,2.75746 l 2.55346,2.75746 -0.76257,1.20244 c -0.62795,0.99018 -0.82914,1.14562 -1.13969,0.88056 z m 33.791894,-3.67071 -1.83019,-1.88141 0.6218,-1.79314 c 1.12847,-3.25428 1.28625,-3.46796 3.34085,-4.52444 1.03824,-0.53387 2.82372,-1.16838 3.96772,-1.41004 1.144,-0.24165 2.83434,-0.65865 3.75631,-0.92667 l 1.67632,-0.48731 -0.16378,0.70363 c -0.0901,0.387 -0.65917,2.2907 -1.26464,4.23045 -1.51572,4.85587 -2.59285,6.0449 -6.78155,7.48602 -0.79376,0.2731 -1.45433,0.49379 -1.46793,0.49043 -0.0136,-0.003 -0.84831,-0.85275 -1.85491,-1.88752 z m -33.972464,-1.99054 -2.68403,-2.86271 0.67111,-0.59531 c 0.36911,-0.32742 0.87518,-0.59531 1.1246,-0.59531 0.24943,0 1.58007,1.13128 2.95699,2.51395 l 2.5035,2.51395 -0.94407,0.94407 -0.94406,0.94407 z m -6.90815,-1.37122 c -0.48057,-0.89795 -2.64616,-6.75815 -2.53755,-6.86675 0.0549,-0.0549 0.85231,0.19175 1.772,0.54814 0.9197,0.35639 2.59491,0.97528 3.7227,1.37533 1.12778,0.40004 2.05052,0.80905 2.05052,0.9089 0,0.16834 -0.8168,0.97466 -3.61304,3.56667 -1.06784,0.98986 -1.10798,1.00332 -1.39463,0.46771 z m 67.663404,46.77848 c 0.045,-0.77574 0.0149,-1.67676 -0.0668,-2.00226 -0.18719,-0.7458 -1.00656,-1.02048 -1.71826,-0.57602 -0.46306,0.28919 -0.54571,0.60943 -0.54571,2.11424 0,1.52813 0.0806,1.82993 0.58304,2.18182 0.49621,0.34756 0.66367,0.35508 1.12448,0.0505 0.41091,-0.27159 0.56115,-0.69786 0.62321,-1.76829 z m -0.46126,-10.04699 c 0.43101,-0.23066 0.51178,-0.56562 0.51178,-2.12234 0,-1.71411 -0.048,-1.87031 -0.66039,-2.14933 -0.54566,-0.24862 -0.7525,-0.21753 -1.19062,0.17897 -0.72798,0.65881 -0.77754,3.6671 -0.0672,4.08082 0.59221,0.34493 0.78116,0.34653 1.40645,0.0119 z m 2.76073,-9.74517 c 1.49203,-0.68015 2.7055,-1.77318 3.38046,-3.04494 0.77426,-1.45885 0.82434,-4.86347 0.092,-6.25058 -1.19552,-2.26424 -3.26247,-3.6762 -5.70222,-3.89523 -4.07027,-0.36541 -7.10358,2.26168 -7.36796,6.38124 -0.1004,1.56442 -0.0169,2.14523 0.47182,3.28125 0.65819,1.53 1.91935,2.78043 3.5524,3.52216 1.43265,0.6507 4.15295,0.65368 5.57354,0.006 z m -4.15624,-1.87055 c -2.56164,-0.82069 -4.00622,-3.62169 -3.10404,-6.01868 0.45792,-1.21668 2.03981,-2.64333 3.33216,-3.00516 2.7515,-0.77037 5.9125,1.66195 5.9125,4.54955 0,1.2759 -0.99185,3.08323 -2.09136,3.81086 -1.07292,0.71002 -2.94596,1.0169 -4.04926,0.66343 z m 2.7097,-2.00549 c 0.86482,-0.44721 1.57884,-1.61966 1.57884,-2.59253 0,-0.80184 -0.86286,-1.91852 -1.89476,-2.45214 -2.33072,-1.20526 -5.01914,2.13886 -3.38556,4.2113 0.97997,1.24324 2.3238,1.54579 3.70148,0.83337 z m -0.85799,-17.64635 c 0.0753,-1.9621 0.0642,-2.00108 -0.61782,-2.17227 -1.44903,-0.36369 -1.70785,-0.0459 -1.70785,2.09709 v 1.94978 l 0.85989,0.10447 c 0.47294,0.0575 0.97896,0.0852 1.12448,0.0617 0.14552,-0.0235 0.2991,-0.94188 0.3413,-2.04075 z m 0.002,-11.51357 c 0.0905,-1.89618 -0.24008,-2.71789 -1.09334,-2.71789 -0.97403,0 -1.23423,0.50854 -1.23423,2.41212 0,1.92095 0.12353,2.09116 1.4552,2.00491 0.78221,-0.0507 0.7949,-0.0754 0.87237,-1.69914 z M 99.652976,102.91468 c -1.04404,-0.52675 -1.33138,-1.77922 -1.25706,-5.479299 l 0.0664,-3.30729 -1.12448,-0.0814 c -1.11901,-0.081 -1.12447,-0.0864 -1.12447,-1.12448 0,-1.04059 0.003,-1.04312 1.05833,-1.04312 h 1.05833 v -1.06156 -1.06155 l 9.855734,0.0694 9.85573,0.0694 0.0821,0.99219 c 0.0798,0.96473 0.11096,0.99219 1.12448,0.99219 1.0397,0 1.04236,0.003 1.04236,1.05833 0,1.05303 -0.005,1.05833 -1.02747,1.05833 -1.29827,0 -1.34544,0.15864 -1.35016,4.54054 l -0.004,3.349929 -0.81405,0.68497 -0.81405,0.68498 -7.98334,-0.004 c -5.89226,-0.003 -8.1566,-0.0913 -8.644804,-0.33763 z M 116.32173,91.614591 c 0,-0.5176 -0.17638,-0.52917 -8.06979,-0.52917 -7.8934,0 -8.06979,0.0116 -8.06979,0.52917 0,0.5176 0.17639,0.52916 8.06979,0.52916 7.89341,0 8.06979,-0.0116 8.06979,-0.52916 z"
       id="path1" /></g></svg>
